<svg xmlns="http://www.w3.org/2000/svg" xmlns:xlink="http://www.w3.org/1999/xlink" width="236.311" height="347.505" viewBox="0 0 236.311 347.505">
  <defs>
    <linearGradient id="linear-gradient" x1="-0.335" y1="-0.097" x2="1" y2="0.976" gradientUnits="objectBoundingBox">
      <stop offset="0" stop-color="#373b44"/>
      <stop offset="1" stop-color="#4286f4"/>
    </linearGradient>
  </defs>
  <path id="Subtraction_20" data-name="Subtraction 20" d="M-1817.181-814a55.511,55.511,0,0,1-16.8-2.455,46.5,46.5,0,0,1-13.542-6.9A54.567,54.567,0,0,1-1858.263-834a80.585,80.585,0,0,1-8.383-13.7c-9.811-20-14.536-46.125-19.1-71.395-4.323-23.906-8.405-46.486-16.431-61.9-11.458-22-30.783-31.917-49.472-41.508-11.072-5.682-21.529-11.049-29.905-18.675a51.1,51.1,0,0,1-10.672-13.377,53.793,53.793,0,0,1-5.952-18.44c-2.048-14.133-.234-30.137,5.391-47.569A208.017,208.017,0,0,1-1974-1161.5h211.308v191.769c-16.86,17.683-16.207,48.713-15.575,78.721.3,14.031.574,27.28-.875,39.026a70.245,70.245,0,0,1-3.691,16.126,34.724,34.724,0,0,1-7.587,12.405,29.2,29.2,0,0,1-10.93,6.968A46.144,46.144,0,0,1-1817.181-814Z" transform="translate(1998.997 1161.5)" fill="url(#linear-gradient)"/>
</svg>
