<svg xmlns="http://www.w3.org/2000/svg" xmlns:xlink="http://www.w3.org/1999/xlink" width="1194.295" height="892.05" viewBox="0 0 1194.295 892.05">
  <defs>
    <style>
      .cls-1 {
        fill: url(#linear-gradient);
      }
    </style>
    <linearGradient id="linear-gradient" x1="-0.606" y1="-0.628" x2="0.79" y2="0.964" gradientUnits="objectBoundingBox">
      <stop offset="0" stop-color="#373b44"/>
      <stop offset="1" stop-color="#4286f4"/>
    </linearGradient>
  </defs>
  <path id="Subtraction_22" data-name="Subtraction 22" class="cls-1" d="M745.276-92.95h-.029a272.789,272.789,0,0,1-49.841-4.573,260.912,260.912,0,0,1-47.992-13.786A253.116,253.116,0,0,1,602.6-134.421a253.933,253.933,0,0,1-40.316-32.552,164.184,164.184,0,0,1-19.925-23.718,137.467,137.467,0,0,1-13.379-24.515,136.426,136.426,0,0,1-7.748-25.281A160.266,160.266,0,0,1,518.2-266.5a213.652,213.652,0,0,1,.768-26.72c.742-8.506,1.937-17.466,3.652-27.392,3.192-18.474,7.612-37.024,12.292-56.663l0-.018c8.424-35.348,17.134-71.9,18.687-109.539a267.959,267.959,0,0,0-.3-28.421,231.333,231.333,0,0,0-3.685-28.788,217.575,217.575,0,0,0-7.775-29.131,223.91,223.91,0,0,0-12.566-29.451c-14.835-28.9-30.716-48.987-48.551-61.408a89.542,89.542,0,0,0-12.8-7.447,85.036,85.036,0,0,0-13.113-4.924,98.489,98.489,0,0,0-27.233-3.556c-21.19,0-43.794,5.431-67.725,11.18-1.724.414-3.674.883-5.585,1.34-12.146,2.9-26.313,6.2-40.754,8.608a265.5,265.5,0,0,1-43.892,3.913,201.339,201.339,0,0,1-79.181-15.913,132.374,132.374,0,0,1-19.9-10.375,131.409,131.409,0,0,1-17.258-13.111A140.877,140.877,0,0,1,138.5-709.842a160.165,160.165,0,0,1-12.483-17.617,189.28,189.28,0,0,1-10.35-19.388c-3.036-6.556-5.857-13.567-8.385-20.837a301.685,301.685,0,0,1-11.553-44.734C84.55-873.7,88.775-940.091,94.286-985H1283v497.9c-10,4.608-20.242,8.913-30.451,12.8-10.114,3.848-20.272,7.313-30.193,10.3a257.754,257.754,0,0,0-30.429,11.144,203.361,203.361,0,0,0-26.978,14.41A213.058,213.058,0,0,0,1140-419.837a292.364,292.364,0,0,0-24.352,23.762c-7.989,8.68-16.224,18.443-25.177,29.848-8.306,10.58-17.277,22.641-27.428,36.872-18.722,26.248-39.707,57.413-67.309,98.575a322.58,322.58,0,0,1-51.681,59.839,308.177,308.177,0,0,1-61.344,43.124,298.8,298.8,0,0,1-67.445,26.1A286.385,286.385,0,0,1,745.276-92.95Z" transform="translate(-88.706 985)"/>
</svg>
