<svg xmlns="http://www.w3.org/2000/svg" xmlns:xlink="http://www.w3.org/1999/xlink" width="43" height="43" viewBox="0 0 43 43">
  <defs>
    <clipPath id="clip-path">
      <rect id="Rectangle_48" data-name="Rectangle 48" width="25.182" height="25.182" fill="#fff" stroke="#707070" stroke-width="1"/>
    </clipPath>
  </defs>
  <g id="Group_222" data-name="Group 222" transform="translate(-702 -5071)">
    <circle id="Ellipse_2" data-name="Ellipse 2" cx="21.5" cy="21.5" r="21.5" transform="translate(702 5071)" fill="#3d68ad"/>
    <g id="Github" transform="translate(710.883 5079.968)" clip-path="url(#clip-path)">
      <path id="github-2" data-name="github" d="M8.423,20.254c0,.1-.117.183-.264.183-.168.015-.284-.066-.284-.183,0-.1.117-.183.264-.183C8.291,20.056,8.423,20.137,8.423,20.254Zm-1.579-.228c-.036.1.066.218.218.249a.238.238,0,0,0,.315-.1c.03-.1-.066-.218-.218-.264A.261.261,0,0,0,6.844,20.025Zm2.244-.086c-.147.036-.249.132-.234.249.015.1.147.168.3.132s.249-.132.234-.234S9.235,19.924,9.088,19.939ZM12.429.484A12.174,12.174,0,0,0,0,12.872,12.729,12.729,0,0,0,8.606,25.016c.65.117.878-.284.878-.614,0-.315-.015-2.051-.015-3.117,0,0-3.554.762-4.3-1.513,0,0-.579-1.477-1.411-1.858,0,0-1.163-.8.081-.782a2.68,2.68,0,0,1,1.96,1.31A2.684,2.684,0,0,0,9.5,19.5a2.822,2.822,0,0,1,.812-1.711c-2.838-.315-5.7-.726-5.7-5.61a3.848,3.848,0,0,1,1.2-2.99A4.8,4.8,0,0,1,5.94,5.744c1.061-.33,3.5,1.371,3.5,1.371a11.994,11.994,0,0,1,6.377,0s2.442-1.706,3.5-1.371a4.8,4.8,0,0,1,.132,3.447,3.947,3.947,0,0,1,1.31,2.99c0,4.9-2.99,5.29-5.828,5.61a3,3,0,0,1,.863,2.356c0,1.711-.015,3.828-.015,4.244,0,.33.234.731.878.614a12.611,12.611,0,0,0,8.519-12.134A12.449,12.449,0,0,0,12.429.484ZM4.935,17.995c-.066.051-.051.168.036.264.081.081.2.117.264.051.066-.051.051-.168-.036-.264C5.118,17.964,5,17.929,4.935,17.995Zm-.548-.411c-.036.066.015.147.117.2a.151.151,0,0,0,.218-.036c.036-.066-.015-.147-.117-.2C4.5,17.517,4.422,17.533,4.387,17.583Zm1.645,1.807c-.081.066-.051.218.066.315.117.117.264.132.33.051.066-.066.036-.218-.066-.315C6.25,19.325,6.1,19.31,6.032,19.391Zm-.579-.746c-.081.051-.081.183,0,.3s.218.168.284.117a.232.232,0,0,0,0-.315c-.071-.117-.2-.168-.284-.1Z" transform="translate(0 -0.169)" fill="#fff"/>
    </g>
  </g>
</svg>
