<svg xmlns="http://www.w3.org/2000/svg" xmlns:xlink="http://www.w3.org/1999/xlink" width="43" height="43" viewBox="0 0 43 43">
  <defs>
    <clipPath id="clip-path">
      <rect id="Rectangle_45" data-name="Rectangle 45" width="25.182" height="25.182" fill="#fff" stroke="#707070" stroke-width="1"/>
    </clipPath>
  </defs>
  <g id="Group_219" data-name="Group 219" transform="translate(-543 -5071)">
    <circle id="Ellipse_5" data-name="Ellipse 5" cx="21.5" cy="21.5" r="21.5" transform="translate(543 5071)" fill="#3d68ad"/>
    <g id="Insta" transform="translate(552.049 5080.422)" clip-path="url(#clip-path)">
      <path id="instagram" d="M12.589,8.263a6.455,6.455,0,1,0,6.455,6.455A6.445,6.445,0,0,0,12.589,8.263Zm0,10.651a4.2,4.2,0,1,1,4.2-4.2,4.2,4.2,0,0,1-4.2,4.2ZM20.813,8a1.506,1.506,0,1,1-1.506-1.506A1.5,1.5,0,0,1,20.813,8Zm4.275,1.528a7.451,7.451,0,0,0-2.034-5.275A7.5,7.5,0,0,0,17.78,2.218C15.7,2.1,9.471,2.1,7.392,2.218A7.489,7.489,0,0,0,2.117,4.246,7.475,7.475,0,0,0,.083,9.522c-.118,2.079-.118,8.309,0,10.387a7.451,7.451,0,0,0,2.034,5.275,7.509,7.509,0,0,0,5.275,2.034c2.079.118,8.309.118,10.387,0a7.451,7.451,0,0,0,5.275-2.034,7.5,7.5,0,0,0,2.034-5.275c.118-2.079.118-8.3,0-10.382ZM22.4,22.139a4.249,4.249,0,0,1-2.393,2.393c-1.657.657-5.59.506-7.421.506s-5.77.146-7.421-.506a4.249,4.249,0,0,1-2.393-2.393c-.657-1.657-.506-5.59-.506-7.421s-.146-5.77.506-7.421A4.249,4.249,0,0,1,5.168,4.9c1.657-.657,5.59-.506,7.421-.506s5.77-.146,7.421.506A4.249,4.249,0,0,1,22.4,7.3c.657,1.657.506,5.59.506,7.421S23.061,20.488,22.4,22.139Z" transform="translate(0.005 -2.127)" fill="#fff"/>
    </g>
  </g>
</svg>
