<svg xmlns="http://www.w3.org/2000/svg" xmlns:xlink="http://www.w3.org/1999/xlink" width="43" height="43" viewBox="0 0 43 43">
  <defs>
    <clipPath id="clip-path">
      <rect id="Rectangle_46" data-name="Rectangle 46" width="25.182" height="25.182" fill="#fff" stroke="#707070" stroke-width="1"/>
    </clipPath>
  </defs>
  <g id="Group_220" data-name="Group 220" transform="translate(-596 -5071)">
    <circle id="Ellipse_4" data-name="Ellipse 4" cx="21.5" cy="21.5" r="21.5" transform="translate(596 5071)" fill="#3d68ad"/>
    <g id="Snap" transform="translate(604.966 5080.093)" clip-path="url(#clip-path)">
      <path id="snapchat-ghost" d="M25.125,19.457c-.256.6-1.34,1.037-3.313,1.344a9.226,9.226,0,0,0-.32,1.178.57.57,0,0,1-.6.436h-.015c-.462,0-.944-.213-1.911-.213A3.892,3.892,0,0,0,16.2,23.215a5.539,5.539,0,0,1-3.641,1.348,5.649,5.649,0,0,1-3.584-1.348A3.888,3.888,0,0,0,6.212,22.2a18.577,18.577,0,0,0-1.911.232.584.584,0,0,1-.611-.445A9.11,9.11,0,0,0,3.37,20.8C2.353,20.645.059,20.245,0,19.222a.523.523,0,0,1,.437-.544C3.86,18.114,5.4,14.6,5.465,14.451l.012-.025A1.118,1.118,0,0,0,5.6,13.5c-.248-.585-1.322-.8-1.773-.974-1.166-.461-1.329-.99-1.26-1.353a1.266,1.266,0,0,1,1.623-.76,2.815,2.815,0,0,0,1.158.31,1,1,0,0,0,.49-.107c-.1-1.767-.349-4.293.28-5.7A6.7,6.7,0,0,1,12.337.9l.5,0a6.655,6.655,0,0,1,6.233,4.015c.628,1.409.381,3.924.28,5.706a.964.964,0,0,0,.423.105,2.938,2.938,0,0,0,1.085-.308,1.331,1.331,0,0,1,1.007,0h0a1.022,1.022,0,0,1,.767.879c.009.479-.419.893-1.273,1.23-.1.041-.231.081-.366.124-.482.153-1.21.384-1.407.849a1.117,1.117,0,0,0,.121.922l.012.025c.064.149,1.6,3.662,5.028,4.227A.537.537,0,0,1,25.125,19.457Z" transform="translate(0 -0.144)" fill="#fff"/>
    </g>
  </g>
</svg>
