<svg xmlns="http://www.w3.org/2000/svg" xmlns:xlink="http://www.w3.org/1999/xlink" width="43" height="43" viewBox="0 0 43 43">
  <defs>
    <clipPath id="clip-path">
      <rect id="Rectangle_44" data-name="Rectangle 44" width="25.182" height="25.182" fill="#fff" stroke="#707070" stroke-width="1"/>
    </clipPath>
  </defs>
  <g id="Group_223" data-name="Group 223" transform="translate(-755 -5071)">
    <circle id="Ellipse_1" data-name="Ellipse 1" cx="21.5" cy="21.5" r="21.5" transform="translate(755 5071)" fill="#3d68ad"/>
    <g id="LinkedIn" transform="translate(763.966 5078.887)" clip-path="url(#clip-path)">
      <path id="linkedin-in" d="M5.637,25.182H.416V8.37H5.637ZM3.024,6.076A3.038,3.038,0,1,1,6.047,3.024,3.049,3.049,0,0,1,3.024,6.076ZM25.177,25.182h-5.21V17c0-1.95-.039-4.452-2.714-4.452-2.714,0-3.13,2.119-3.13,4.311v8.325H8.907V8.37h5.007v2.293h.073a5.486,5.486,0,0,1,4.94-2.715c5.284,0,6.255,3.479,6.255,8v9.235Z" transform="translate(0 -0.001)" fill="#fff"/>
    </g>
  </g>
</svg>
