<svg xmlns="http://www.w3.org/2000/svg" xmlns:xlink="http://www.w3.org/1999/xlink" width="69.289" height="41.42" viewBox="0 0 69.289 41.42">
  <defs>
    <linearGradient id="linear-gradient" x1="0.053" x2="0.967" y2="0.946" gradientUnits="objectBoundingBox">
      <stop offset="0" stop-color="#373b44"/>
      <stop offset="1" stop-color="#4286f4"/>
    </linearGradient>
  </defs>
  <path id="Logo" d="M63.256,41.42H50.695l-4.907-8.1-4.862,8.1H28.274l-4.637-8.1-4.547,8.1H5.943L0,30.255,17.469,0H29.895l4.592,8.284L39.664,0H52.226L69.289,30.165,63.256,41.42Zm-5.668-9.9-4.038,7.55h8.37l3.921-7.55H57.588Zm-22.065.135-4.367,7.069H39.71l3.917-7.069ZM18,23.7,9.233,38.594h8.173l4.5-8.346L18,23.7ZM40.2,3.89,36.049,11.03,51.618,37.544l3.921-7.258L40.2,3.89ZM17.964,18.346,29.143,37.193l3.98-7.082L17.964,4.475,2.863,30.4l3.98,6.789,11.12-18.846h0ZM20.215,2.791,35.432,29.309h8.239L28.364,2.791ZM42.37,2.6h0L57.7,29.233h8.428L50.623,2.6H42.37Z" fill="url(#linear-gradient)"/>
</svg>
