<svg xmlns="http://www.w3.org/2000/svg" width="61.621" height="36.836" viewBox="0 0 61.621 36.836"><defs><style>.a{fill:#fff;}</style></defs><path class="a" d="M56.256,36.837H45.085L40.72,29.629,36.4,36.836H25.145l-4.124-7.207-4.044,7.207H5.285L0,26.907,15.535,0H26.586L30.67,7.367,35.275,0H46.446L61.621,26.827l-5.365,10.01Zm-5.041-8.809-3.592,6.715h7.443l3.487-6.715H51.215Zm-19.623.12-3.884,6.286h7.608L38.8,28.148ZM16,21.079,8.211,34.323H15.48l4-7.423L16,21.079ZM35.756,3.459l-3.7,6.35L45.906,33.389l3.487-6.454L35.755,3.459ZM15.976,16.316l9.942,16.761,3.54-6.3L15.976,3.98,2.547,27.039l3.54,6.038,9.89-16.761h0Zm2-13.834L31.511,26.066h7.327L25.225,2.482Zm19.7-.168h0L51.319,26h7.5L45.021,2.314H37.681Z"/></svg>